<svg viewBox="0 0 108 26" xmlns:xlink="http://www.w3.org/1999/xlink" width="108" height="26" fill="none" xmlns="http://www.w3.org/2000/svg"><path d="M7.695 10.36s.006 0 .006-.003L19.997.47l-9.905 15.257-.022.033-2.085-1.638c-1.666-1.347-1.739-2.588-.287-3.76h-.003z" fill="url(&quot;#prefix__paint0_linear_971_706&quot;)"></path><path d="M22.5 25.532h-6.613L2.199 14.787l2.885-2.323.395-.316L7.7 10.36c-1.458 1.173-1.388 2.416.28 3.764L22.5 25.532z" fill="url(&quot;#prefix__paint1_linear_971_706&quot;)"></path><path d="M15.967 25.531H9.354L.649 18.728a1.724 1.724 0 01-.013-2.685l1.245-1.001.36-.29 2.222-1.787c-1.455 1.172-1.388 2.41.268 3.753l.012.01 11.224 8.803z" fill="url(&quot;#prefix__paint2_linear_971_706&quot;)"></path><path d="M30.417 25.532V5.56h3.432v19.97h-3.432zM50.413 22.634c.394.029.957 0 1.52-.056v2.87c-.704.055-1.407.084-1.998.084-3.713 0-5.71-1.885-5.71-5.43V7.784h3.432v3.966h4.19v2.756h-4.19v5.485c0 1.772.59 2.644 2.756 2.644zM66.296 18.584v.703h-9.873c.253 2.25 1.575 3.516 3.544 3.516 2.054 0 2.813-1.069 3.038-1.912h3.235c-.478 2.419-2.391 4.64-6.413 4.64-4.22 0-6.78-2.925-6.78-7.003 0-4.163 2.87-7.06 6.808-7.06 4.078 0 6.441 2.813 6.441 7.116zm-6.413-4.472c-1.716 0-3.038 1.04-3.404 3.066h6.554c-.281-2.11-1.434-3.066-3.15-3.066zM82.22 25.532l-1.49-4.389h-8.045l-1.49 4.389h-3.46L74.71 6.236h3.995l6.975 19.296h-3.46zm-8.55-7.201h6.075l-3.037-8.889-3.038 8.889zM95.365 6.236c4.079 0 6.751 2.081 6.751 5.935 0 3.825-2.672 6.02-6.75 6.02H91.09v7.34h-3.432V6.236h7.707zm0 9.085c2.138 0 3.263-1.322 3.263-3.122 0-1.772-1.125-3.094-3.263-3.094H91.09v6.216h4.275zM104.566 25.532V6.236h3.431v19.296h-3.431zM37.024 25.532V11.749h3.432v13.783h-3.432z" fill="#1C0C45"></path><path d="M38.74 9.375c1.154 0 2.051-.847 2.051-2.064 0-1.165-.897-2.038-2.05-2.038-1.154 0-2.051.873-2.051 2.038 0 1.217.897 2.064 2.05 2.064z" fill="#6F33FF"></path><defs><linearGradient id="prefix__paint0_linear_971_706" x1="17.204" y1="6.988" x2="6.101" y2="12.571" gradientUnits="userSpaceOnUse"><stop stop-color="#EDE5FF"></stop><stop offset="0.16" stop-color="#E5DAFF"></stop><stop offset="0.44" stop-color="#D1BDFF"></stop><stop offset="0.55" stop-color="#C9B1FF"></stop><stop offset="0.62" stop-color="#C5ACFF"></stop><stop offset="0.7" stop-color="#BB9DFF"></stop><stop offset="0.79" stop-color="#AA85FF"></stop><stop offset="0.89" stop-color="#9264FF"></stop><stop offset="0.98" stop-color="#743AFF"></stop><stop offset="1" stop-color="#6F33FF"></stop></linearGradient><linearGradient id="prefix__paint1_linear_971_706" x1="4.328" y1="12.068" x2="24.851" y2="28.174" gradientUnits="userSpaceOnUse"><stop stop-color="#EDE5FF"></stop><stop offset="0.11" stop-color="#E5DAFF"></stop><stop offset="0.31" stop-color="#D0BCFF"></stop><stop offset="0.57" stop-color="#AF8DFF"></stop><stop offset="0.88" stop-color="#814CFF"></stop><stop offset="1" stop-color="#6F33FF"></stop></linearGradient><linearGradient id="prefix__paint2_linear_971_706" x1="-0.929" y1="13.031" x2="14.717" y2="25.311" gradientUnits="userSpaceOnUse"><stop stop-color="#EDE5FF"></stop><stop offset="0.11" stop-color="#E5DAFF"></stop><stop offset="0.31" stop-color="#D0BCFF"></stop><stop offset="0.56" stop-color="#AF8DFF"></stop><stop offset="0.87" stop-color="#814CFF"></stop><stop offset="0.98" stop-color="#6F33FF"></stop></linearGradient><linearGradient id="prefix__paint0_linear_971_706" x1="17.204" y1="6.988" x2="6.101" y2="12.571" gradientUnits="userSpaceOnUse"><stop stop-color="#EDE5FF"></stop><stop offset="0.16" stop-color="#E5DAFF"></stop><stop offset="0.44" stop-color="#D1BDFF"></stop><stop offset="0.55" stop-color="#C9B1FF"></stop><stop offset="0.62" stop-color="#C5ACFF"></stop><stop offset="0.7" stop-color="#BB9DFF"></stop><stop offset="0.79" stop-color="#AA85FF"></stop><stop offset="0.89" stop-color="#9264FF"></stop><stop offset="0.98" stop-color="#743AFF"></stop><stop offset="1" stop-color="#6F33FF"></stop></linearGradient><linearGradient id="prefix__paint1_linear_971_706" x1="4.328" y1="12.068" x2="24.851" y2="28.174" gradientUnits="userSpaceOnUse"><stop stop-color="#EDE5FF"></stop><stop offset="0.11" stop-color="#E5DAFF"></stop><stop offset="0.31" stop-color="#D0BCFF"></stop><stop offset="0.57" stop-color="#AF8DFF"></stop><stop offset="0.88" stop-color="#814CFF"></stop><stop offset="1" stop-color="#6F33FF"></stop></linearGradient><linearGradient id="prefix__paint2_linear_971_706" x1="-0.929" y1="13.031" x2="14.717" y2="25.311" gradientUnits="userSpaceOnUse"><stop stop-color="#EDE5FF"></stop><stop offset="0.11" stop-color="#E5DAFF"></stop><stop offset="0.31" stop-color="#D0BCFF"></stop><stop offset="0.56" stop-color="#AF8DFF"></stop><stop offset="0.87" stop-color="#814CFF"></stop><stop offset="0.98" stop-color="#6F33FF"></stop></linearGradient></defs></svg>